HIERARCHY
ROOT Pelvis
{
	OFFSET 0.000000 0.000000 0.000000
	CHANNELS 6 Xposition Yposition Zposition Xrotation Yrotation Zrotation
	JOINT LeftUpLeg_virtual
	{
		OFFSET 0.000000 0.000000 0.000000
		CHANNELS 3 Xrotation Yrotation Zrotation
		JOINT LeftUpLeg
		{
			OFFSET 8.479700 -4.795502 -0.379100
			CHANNELS 3 Xrotation Yrotation Zrotation
			JOINT LeftLeg
			{
				OFFSET 0.024144 -32.555107 0.112900
				CHANNELS 3 Xrotation Yrotation Zrotation
				JOINT LeftFoot
				{
					OFFSET -0.024144 -32.638630 -3.012600
					CHANNELS 3 Xrotation Yrotation Zrotation
					JOINT LeftToeBase
					{
						OFFSET 0.970200 -13.225400 11.864200
						CHANNELS 3 Xrotation Yrotation Zrotation
						End Site
						{
							OFFSET 0 0 0
						}
					}
				}
			}
		}
	}
	JOINT RightUpLeg_virtual
	{
		OFFSET 0.000000 0.000000 0.000000
		CHANNELS 3 Xrotation Yrotation Zrotation
		JOINT RightUpLeg
		{
			OFFSET -8.479700 -4.795502 -0.379100
			CHANNELS 3 Xrotation Yrotation Zrotation
			JOINT RightLeg
			{
				OFFSET -0.023144 -32.555092 0.112900
				CHANNELS 3 Xrotation Yrotation Zrotation
				JOINT RightFoot
				{
					OFFSET 0.023144 -32.638641 -3.012700
					CHANNELS 3 Xrotation Yrotation Zrotation
					JOINT RightToeBase
					{
						OFFSET -0.970200 -13.225400 11.864200
						CHANNELS 3 Xrotation Yrotation Zrotation
						End Site
						{
							OFFSET 0 0 0
						}
					}
				}
			}
		}
	}
	JOINT Hips_virtual
	{
		OFFSET 0.000000 0.000000 0.000000
		CHANNELS 3 Xrotation Yrotation Zrotation
		JOINT Hips
		{
			OFFSET -0.000000 -0.000000 -0.000000
			CHANNELS 3 Xrotation Yrotation Zrotation
			JOINT Spine
			{
				OFFSET 0.000000 7.722000 1.166200
				CHANNELS 3 Xrotation Yrotation Zrotation
				JOINT Spine1
				{
					OFFSET 0.000000 12.024101 0.248800
					CHANNELS 3 Xrotation Yrotation Zrotation
					JOINT Spine2
					{
						OFFSET 0.000000 11.502998 -0.491200
						CHANNELS 3 Xrotation Yrotation Zrotation
						JOINT Neck_virtual
						{
							OFFSET 0.000000 0.000000 0.000000
							CHANNELS 3 Xrotation Yrotation Zrotation
							JOINT Neck
							{
								OFFSET 0.000000 18.430702 -3.123100
								CHANNELS 3 Xrotation Yrotation Zrotation
								JOINT Head
								{
									OFFSET 0.000000 9.051102 1.034000
									CHANNELS 3 Xrotation Yrotation Zrotation
									End Site
									{
										OFFSET 0 0 0
									}
								}
							}
						}
						JOINT LeftShoulder_virtual
						{
							OFFSET 0.000000 0.000000 0.000000
							CHANNELS 3 Xrotation Yrotation Zrotation
							JOINT LeftShoulder
							{
								OFFSET 6.197800 13.665199 -4.064700
								CHANNELS 3 Xrotation Yrotation Zrotation
								JOINT LeftArm
								{
									OFFSET 7.778100 -0.187103 -1.709300
									CHANNELS 3 Xrotation Yrotation Zrotation
									JOINT LeftForeArm
									{
										OFFSET 22.049376 0.000000 0.000000
										CHANNELS 3 Xrotation Yrotation Zrotation
										JOINT LeftHand
										{
											OFFSET 23.009392 0.000000 0.000000
											CHANNELS 3 Xrotation Yrotation Zrotation
											End Site
											{
												OFFSET 0 0 0
											}
										}
									}
								}
							}
						}
						JOINT RightShoulder_virtual
						{
							OFFSET 0.000000 0.000000 0.000000
							CHANNELS 3 Xrotation Yrotation Zrotation
							JOINT RightShoulder
							{
								OFFSET -6.197800 13.665199 -4.064700
								CHANNELS 3 Xrotation Yrotation Zrotation
								JOINT RightArm
								{
									OFFSET -7.778100 -0.187103 -1.709300
									CHANNELS 3 Xrotation Yrotation Zrotation
									JOINT RightForeArm
									{
										OFFSET -22.049376 0.000000 0.000000
										CHANNELS 3 Xrotation Yrotation Zrotation
										JOINT RightHand
										{
											OFFSET -23.009392 0.000000 0.000000
											CHANNELS 3 Xrotation Yrotation Zrotation
											End Site
											{
												OFFSET 0 0 0
											}
										}
									}
								}
							}
						}
					}
				}
			}
		}
	}
}
MOTION
Frames: 9
Frame Time: 0.03333333
0.039645 66.232292 1.302347 0.000000 0.000000 0.000000 7.472113 2.017516 -2.410115 21.472849 17.555581 5.414105 22.170627 -5.235049 7.478007 -41.954201 -1.789103 -1.385779 0.000000 0.000000 0.000000 7.472113 2.017516 -2.410115 -62.323004 -2.508276 -0.733850 75.753662 -2.707587 -0.213818 -21.093595 3.201797 -4.293339 0.000000 0.000000 0.000000 7.472113 2.017516 -2.410115 0.000001 0.000000 0.000000 1.519649 -1.727829 0.857179 4.463941 -2.897045 3.069452 0.000000 0.000000 0.000000 4.470553 -2.960904 2.997961 -6.646405 2.329847 -0.789045 0.000000 0.000000 0.000000 4.470553 -2.960904 2.997961 -0.863851 7.389831 -0.025976 -11.563468 10.383920 -66.345514 -179.999937 -64.819909 -179.999937 0.000000 0.000000 0.000000 4.470553 -2.960904 2.997961 0.518559 -7.917612 14.973081 -19.108965 0.823927 54.260010 -179.999896 65.206081 179.999896 0.000000 0.000000 0.000000 
0.109235 67.994797 1.667582 0.000000 0.000000 0.000000 7.393077 3.880557 -1.561176 19.382250 15.687819 4.667804 23.496605 -4.234065 8.833176 -35.323696 -1.692729 -1.419508 0.000000 0.000000 0.000000 7.393077 3.880557 -1.561176 -59.278420 -2.309005 -2.110083 71.994108 -3.530624 -0.409375 -20.259393 3.187620 -4.502094 0.000000 0.000000 0.000000 7.393077 3.880557 -1.561176 0.000000 -0.000001 0.000000 1.657859 -1.946072 0.804754 3.785098 -3.090957 2.685692 0.000000 0.000000 0.000000 3.791148 -3.134331 2.617750 -6.142039 2.189227 -1.060333 0.000000 0.000000 0.000000 3.791148 -3.134331 2.617750 -0.699218 6.301895 -0.123048 -14.747400 8.597204 -65.355082 -179.999964 -66.227638 -179.999964 0.000000 0.000000 0.000000 3.791148 -3.134331 2.617750 0.413491 -7.788723 13.845023 -20.755799 2.647589 54.652479 -179.999923 65.289737 179.999923 0.000000 0.000000 0.000000 
0.240976 70.010803 1.865297 0.000000 0.000000 0.000000 7.045953 5.737162 -0.879095 15.379016 13.744905 3.978536 27.317550 -1.690286 10.779481 -26.513213 -1.223859 -2.496617 0.000000 0.000000 0.000000 7.045953 5.737162 -0.879095 -55.565532 -2.314251 -3.285158 67.128308 -4.377356 -0.617562 -18.680986 3.157624 -4.839458 0.000000 0.000000 0.000000 7.045953 5.737162 -0.879095 0.000000 0.000000 0.000000 2.286768 -2.030827 1.208052 3.099218 -3.162404 2.168580 0.000000 0.000000 0.000000 3.091624 -3.180354 2.120447 -5.647363 2.000596 -1.393997 0.000000 0.000000 0.000000 3.091624 -3.180354 2.120447 -0.472603 4.837149 -0.286772 -18.246978 6.118548 -64.201128 -179.999950 -68.040726 -179.999964 0.000000 0.000000 0.000000 3.091624 -3.180354 2.120447 0.323428 -7.582996 12.788914 -22.735697 4.589337 55.000515 -179.999964 65.453143 179.999964 0.000000 0.000000 0.000000 
0.407598 72.135689 1.869640 0.000000 0.000000 0.000000 6.506286 7.496227 -0.332283 9.431748 11.800672 3.349528 32.600401 2.314826 12.929150 -13.201063 -0.738234 -4.812065 0.000000 0.000000 0.000000 6.506286 7.496227 -0.332283 -51.487011 -2.470640 -4.067593 61.477501 -5.385994 -0.924080 -16.575544 3.187100 -5.539354 0.000000 0.000000 0.000000 6.506286 7.496227 -0.332283 0.000001 0.000001 -0.000000 3.182325 -1.979272 1.756096 2.446619 -3.124234 1.713961 0.000000 0.000000 0.000000 2.423727 -3.115748 1.695902 -5.047372 1.811920 -1.815773 0.000000 0.000000 0.000000 2.423727 -3.115748 1.695902 -0.203421 3.122970 -0.566954 -21.904191 3.029750 -63.035037 -179.999923 -70.309694 -179.999896 0.000000 0.000000 0.000000 2.423727 -3.115748 1.695902 0.250415 -6.988276 11.672796 -25.083294 6.274631 55.058766 -179.999896 65.778048 179.999882 0.000000 0.000000 0.000000 
0.583822 74.167740 1.667688 0.000000 0.000000 0.000000 5.838221 9.184327 -0.007333 3.871871 9.893481 3.864936 35.621308 4.842090 12.333131 4.393492 -1.504590 -4.485457 0.000000 0.000000 0.000000 5.838221 9.184327 -0.007333 -47.612532 -2.596545 -4.564139 55.605601 -6.436839 -1.360157 -13.142864 3.073811 -5.461532 0.000000 0.000000 0.000000 5.838221 9.184327 -0.007333 0.000001 0.000001 -0.000000 4.126416 -1.834832 2.380466 2.040740 -3.016033 1.391132 0.000000 0.000000 0.000000 2.006036 -2.989533 1.398627 -4.440903 1.612599 -2.281644 0.000000 0.000000 0.000000 2.006036 -2.989533 1.398627 0.068468 1.355724 -0.866199 -25.917132 -0.435045 -62.080662 179.999991 -72.914018 -179.999991 0.000000 0.000000 0.000000 2.006036 -2.989533 1.398627 0.210348 -5.995285 10.576172 -27.995668 7.628515 54.628741 -179.999937 66.269145 179.999923 0.000000 0.000000 0.000000 
0.741097 76.086227 1.408340 0.000000 0.000000 0.000000 5.074093 10.820206 0.182798 3.043774 8.570407 5.023612 32.376937 0.688223 8.500643 19.816124 -2.224111 -3.070454 0.000000 0.000000 0.000000 5.074093 10.820206 0.182798 -44.043829 -2.595770 -4.919089 49.815752 -7.751666 -1.862787 -8.201330 2.742515 -4.420767 0.000000 0.000000 0.000000 5.074093 10.820206 0.182798 0.000000 -0.000001 0.000000 5.071886 -1.638776 2.990949 1.834225 -2.865892 1.149757 0.000000 0.000000 0.000000 1.790648 -2.826321 1.178408 -3.835538 1.395486 -2.713006 0.000000 0.000000 0.000000 1.790648 -2.826321 1.178408 0.323202 -0.389091 -0.974712 -30.264264 -3.959357 -61.559969 -179.999718 -75.754366 -179.999691 0.000000 0.000000 0.000000 1.790648 -2.826321 1.178408 0.202854 -4.837822 9.589669 -31.403635 8.717720 53.789574 -179.999882 66.971378 179.999882 0.000000 0.000000 0.000000 
0.874674 77.653854 1.029802 0.000000 0.000000 0.000000 4.285198 12.323512 0.112645 -0.216110 7.758736 4.490582 33.547891 2.602245 6.153498 32.376452 -0.559487 4.013075 0.000000 0.000000 0.000000 4.285198 12.323512 0.112645 -41.090872 -2.600325 -4.953739 44.664868 -10.009635 -2.428056 -2.637097 2.460734 -3.094016 0.000000 0.000000 0.000000 4.285198 12.323512 0.112645 0.000000 0.000000 0.000000 5.834622 -1.382130 3.748632 1.949363 -2.659791 0.899520 0.000000 0.000000 0.000000 1.896970 -2.616142 0.938718 -3.296966 1.144834 -3.044797 0.000000 0.000000 0.000000 1.896970 -2.616142 0.938718 0.568132 -2.178354 -0.868055 -35.106701 -7.404369 -61.207067 179.999868 -78.716762 179.999841 0.000000 0.000000 0.000000 1.896970 -2.616142 0.938718 0.207307 -3.936308 8.797186 -35.419128 9.963638 52.813434 -179.999841 68.060772 179.999855 0.000000 0.000000 0.000000 
0.940280 78.912865 0.701029 0.000000 0.000000 0.000000 3.556143 13.531879 0.004697 -6.000419 6.768817 4.881102 41.374083 3.699078 4.873505 37.993368 -0.342128 3.500304 0.000000 0.000000 0.000000 3.556143 13.531879 0.004697 -38.756197 -2.617024 -4.840048 40.329736 -10.566647 -2.971179 3.432959 -0.040812 -1.253423 0.000000 0.000000 0.000000 3.556143 13.531879 0.004697 0.000000 0.000000 0.000000 6.329333 -1.066157 4.399204 2.327362 -2.380165 0.628729 0.000000 0.000000 0.000000 2.267411 -2.341176 0.670474 -2.821288 0.881650 -3.266269 0.000000 0.000000 0.000000 2.267411 -2.341176 0.670474 0.811375 -3.890134 -0.123777 -40.255868 -10.483773 -61.301679 -179.998912 -81.754209 -179.998953 0.000000 0.000000 0.000000 2.267411 -2.341176 0.670474 0.181351 -3.613127 8.002369 -39.833875 11.582500 52.229422 -179.999964 69.772035 179.999937 0.000000 0.000000 0.000000 
0.941101 79.954170 0.458031 0.000000 0.000000 0.000000 2.993401 14.281167 -0.155485 -12.037573 6.265036 5.272925 49.924093 4.101294 3.460386 40.966382 -0.421715 2.608763 0.000000 0.000000 0.000000 2.993401 14.281167 -0.155485 -36.925027 -2.646458 -4.891875 36.401466 -10.476954 -3.330533 10.498100 -2.055359 2.149984 0.000000 0.000000 0.000000 2.993401 14.281167 -0.155485 0.000000 0.000000 0.000000 6.455056 -0.682936 4.845807 2.978381 -2.041431 0.410065 0.000000 0.000000 0.000000 2.915022 -2.015024 0.447750 -2.420707 0.649268 -3.417442 0.000000 0.000000 0.000000 2.915022 -2.015024 0.447750 1.014100 -5.352210 0.544284 -45.652226 -13.589409 -61.251525 179.999172 -84.906573 179.999158 0.000000 0.000000 0.000000 2.915022 -2.015024 0.447750 0.089341 -4.052606 7.037432 -44.633609 13.795995 52.404770 -179.999855 72.352535 179.999855 0.000000 0.000000 0.000000 
